<?xml version="1.0" encoding="UTF-8"?>
<svg id="Layer_1" data-name="Layer 1" xmlns="http://www.w3.org/2000/svg" viewBox="0 0 29.42 191.06">
  <defs>
    <style>
      .cls-1 {
        fill: #fff;
      }

      .cls-2 {
        fill: #231f20;
      }
    </style>
  </defs>
  <path class="cls-1" d="m2,186.86c-.23.02-.26-.14-.25-.31.01-.12.09-.22.25-.19v.5Z"/>
  <path class="cls-1" d="m0,190.61c0-.29.22-.3.39-.22.3.13.57.31.86.47-.03.07-.04.19-.09.2-.14.04-.97-.3-1.16-.45Z"/>
  <path class="cls-2" d="m20.35,0v10.01h9.07v4.82h-9.07v18.79c0,4.32,1.22,6.77,4.75,6.77,1.66,0,2.88-.22,3.67-.43l.29,4.75c-1.22.5-3.17.86-5.62.86-2.95,0-5.33-.94-6.84-2.66-1.8-1.87-2.45-4.97-2.45-9.07V14.83h-5.4v-4.82h5.4V1.66l6.19-1.66Z"/>
</svg>